<svg xmlns="http://www.w3.org/2000/svg" version="1.1" xmlns:xlink="http://www.w3.org/1999/xlink" xmlns:svgjs="http://svgjs.com/svgjs" width="350" height="150" preserveAspectRatio="none" viewBox="0 0 350 150">
    <g mask="url(&quot;#SvgjsMask1058&quot;)" fill="none">
        <rect width="350" height="150" x="0" y="0" fill="rgba(243, 197, 197, 1)"></rect>
        <path d="M137.576,58.205C145.759,58.578,153.669,54.529,157.838,47.478C162.079,40.306,162.445,31.011,157.709,24.156C153.443,17.98,145.06,17.578,137.576,18.147C131.258,18.628,125.494,21.493,122.131,26.863C118.529,32.614,117.277,39.68,120.277,45.767C123.642,52.595,129.972,57.859,137.576,58.205" fill="rgba(193, 163, 163, 1)" class="triangle-float2"></path>
        <path d="M210.466,36.072C219.9,36.623,228.801,30.975,233.254,22.64C237.482,14.726,235.493,5.395,231.005,-2.375C226.519,-10.141,219.434,-16.675,210.466,-16.809C201.299,-16.946,192.949,-11.199,188.834,-3.006C185.077,4.473,187.812,12.901,191.865,20.223C196.094,27.862,201.75,35.563,210.466,36.072" fill="rgba(193, 163, 163, 1)" class="triangle-float1"></path>
        <path d="M277.956,169.153C287.385,169.238,295.279,163.073,300.282,155.081C305.675,146.466,309.34,135.806,304.39,126.929C299.347,117.885,288.3,114.555,277.956,115.04C268.475,115.485,260.04,120.891,255.493,129.222C251.132,137.211,251.852,146.752,256.315,154.685C260.875,162.79,268.656,169.069,277.956,169.153" fill="rgba(193, 163, 163, 1)" class="triangle-float1"></path>
        <path d="M153.105,96.863C164.103,97.134,176.296,96.507,182.391,87.349C189.003,77.414,188.279,63.884,181.662,53.953C175.631,44.901,163.982,43.424,153.105,43.397C142.162,43.37,130.144,44.558,124.3,53.81C118.154,63.54,119.819,76.398,126.218,85.963C131.982,94.578,142.743,96.607,153.105,96.863" fill="rgba(193, 163, 163, 1)" class="triangle-float2"></path>
        <path d="M339.046,104.054C348.755,103.845,356.118,96.262,360.797,87.752C365.276,79.605,366.989,69.795,362.294,61.771C357.638,53.814,348.261,50.841,339.046,50.575C329.227,50.292,318.493,51.989,313.351,60.359C308.029,69.022,310.454,79.962,315.608,88.726C320.68,97.35,329.043,104.27,339.046,104.054" fill="rgba(193, 163, 163, 1)" class="triangle-float3"></path>
    </g>
    <defs>
        <mask id="SvgjsMask1058">
            <rect width="350" height="150" fill="#ffffff"></rect>
        </mask>
        <style>
            @keyframes float1 {
                0%{transform: translate(0, 0)}
                50%{transform: translate(-10px, 0)}
                100%{transform: translate(0, 0)}
            }

            .triangle-float1 {
                animation: float1 5s infinite;
            }

            @keyframes float2 {
                0%{transform: translate(0, 0)}
                50%{transform: translate(-5px, -5px)}
                100%{transform: translate(0, 0)}
            }

            .triangle-float2 {
                animation: float2 4s infinite;
            }

            @keyframes float3 {
                0%{transform: translate(0, 0)}
                50%{transform: translate(0, -10px)}
                100%{transform: translate(0, 0)}
            }

            .triangle-float3 {
                animation: float3 6s infinite;
            }
        </style>
    </defs>
</svg>
